<svg xmlns="http://www.w3.org/2000/svg" xmlns:xlink="http://www.w3.org/1999/xlink" viewBox="0,0,256,256" width="150px" height="150px" fill-rule="nonzero"><g fill="#110f0f" fill-rule="nonzero" stroke="none" stroke-width="1" stroke-linecap="butt" stroke-linejoin="miter" stroke-miterlimit="10" stroke-dasharray="" stroke-dashoffset="0" font-family="none" font-weight="none" font-size="none" text-anchor="none" style="mix-blend-mode: normal"><path d="M0,256v-256h256v256z" id="bgRectangle"></path></g><g fill="#b3b3b3" fill-rule="nonzero" stroke="none" stroke-width="1" stroke-linecap="butt" stroke-linejoin="miter" stroke-miterlimit="10" stroke-dasharray="" stroke-dashoffset="0" font-family="none" font-weight="none" font-size="none" text-anchor="none" style="mix-blend-mode: normal"><g transform="scale(5.12,5.12)"><path d="M20,4c-4.94531,0 -9,4.05469 -9,9v22.5625l-5.28125,-5.28125l-1.4375,1.4375l7,7l0.71875,0.6875l0.71875,-0.6875l7,-7l-1.4375,-1.4375l-5.28125,5.28125v-22.5625c0,-3.85547 3.14453,-7 7,-7h11v-2zM38,10.59375l-0.71875,0.6875l-7,7l1.4375,1.4375l5.28125,-5.28125v22.5625c0,3.85547 -3.14453,7 -7,7h-11v2h11c4.94531,0 9,-4.05469 9,-9v-22.5625l5.28125,5.28125l1.4375,-1.4375l-7,-7z"></path></g></g></svg>